<svg width="104" height="28" viewBox="0 0 104 28" fill="none" xmlns="http://www.w3.org/2000/svg">
<path fill-rule="evenodd" clip-rule="evenodd" d="M0.15964 18.8618C1.36308 19.5938 2.38232 20.094 3.21735 20.399C4.05239 20.6918 4.87515 20.8382 5.67335 20.8382C6.47155 20.8382 7.12238 20.6552 7.61358 20.3136C8.10478 19.9598 8.3381 19.5084 8.3381 18.9594C8.3381 18.1663 7.46622 17.2757 5.73475 16.2875C5.45231 16.1289 5.24355 15.9947 5.08391 15.9093L3.76995 15.165C2.49283 14.4452 1.535 13.6278 0.920998 12.7249C0.306999 11.8221 0 10.7851 0 9.63823C0 8.07658 0.589439 6.79553 1.7806 5.80729C2.95947 4.80686 4.49447 4.30664 6.36103 4.30664C7.0487 4.30664 7.79778 4.39204 8.60826 4.55065C9.41874 4.70926 10.3152 4.96546 11.2976 5.29488V9.83344C10.352 9.24782 9.46786 8.7964 8.62054 8.47919C7.77322 8.16198 7.06099 8.00337 6.47155 8.00337C5.82071 8.00337 5.30495 8.14978 4.92427 8.41819C4.54359 8.6988 4.35939 9.07701 4.35939 9.55283C4.35939 9.89444 4.46991 10.1995 4.69095 10.4923C4.91199 10.7851 5.25583 11.0535 5.69791 11.2975L7.98198 12.5663C9.89766 13.6156 11.1871 14.5916 11.8379 15.4822C12.501 16.3729 12.8326 17.4343 12.8326 18.6544C12.8326 20.5454 12.1817 22.0705 10.8923 23.2295C9.59066 24.3886 7.87146 24.9742 5.73475 24.9742C5.01023 24.9742 4.22431 24.901 3.36471 24.7424C2.51739 24.596 1.57184 24.352 0.552599 24.0347L0.15964 18.8618Z" fill="#F08000"/>
<path fill-rule="evenodd" clip-rule="evenodd" d="M49.5503 4.99023V15.6412C49.5503 17.3493 49.8696 18.6303 50.4959 19.4844C51.1221 20.3384 52.08 20.7654 53.3694 20.7654C54.6097 20.7654 55.5552 20.3628 56.1938 19.5698C56.8446 18.7767 57.1762 17.6299 57.1762 16.117V4.99023H61.3391V16.1048C61.3391 18.8987 60.6146 21.0826 59.1778 22.6565C57.7411 24.2181 55.7271 24.9989 53.1606 24.9989C50.5695 24.9989 48.5556 24.2181 47.1066 22.6687C45.6698 21.1192 44.9453 18.9353 44.9453 16.1292V4.99023H49.5503Z" fill="#F08000"/>
<path d="M86.9666 4.95312H82.3125V24.3274H86.9666V4.95312Z" fill="#F08000"/>
<path fill-rule="evenodd" clip-rule="evenodd" d="M90.5899 18.8618C91.7933 19.5938 92.8126 20.094 93.6476 20.399C94.4826 20.6918 95.3054 20.8382 96.1036 20.8382C96.9018 20.8382 97.5526 20.6552 98.0438 20.3136C98.535 19.9598 98.7684 19.5084 98.7684 18.9594C98.7684 18.1663 97.8965 17.2757 96.165 16.2875C95.8826 16.1289 95.6738 15.9947 95.5142 15.9093L94.2002 15.165C92.9231 14.4452 91.9652 13.6278 91.3513 12.7249C90.7373 11.8221 90.418 10.7851 90.418 9.63823C90.418 8.07657 91.0074 6.79553 92.1986 5.80729C93.3774 4.80686 94.9124 4.30664 96.779 4.30664C97.4667 4.30664 98.2158 4.39204 99.0262 4.55065C99.8367 4.70925 100.733 4.96546 101.716 5.29488V9.83344C100.77 9.24782 99.8858 8.7964 99.0385 8.47919C98.1912 8.16198 97.479 8.00337 96.8895 8.00337C96.2387 8.00337 95.7229 8.14978 95.3422 8.41819C94.9616 8.6988 94.7774 9.07701 94.7774 9.55283C94.7774 9.89444 94.8879 10.1995 95.1089 10.4923C95.33 10.7851 95.6738 11.0535 96.1159 11.2975L98.4 12.5541C100.316 13.6034 101.605 14.5794 102.256 15.47C102.919 16.3607 103.251 17.4221 103.251 18.6422C103.251 20.5332 102.6 22.0583 101.31 23.2173C100.009 24.3764 98.2894 24.962 96.1527 24.962C95.4282 24.962 94.6423 24.8888 93.7827 24.7302C92.9354 24.5838 91.9898 24.3398 90.9706 24.0225L90.5899 18.8618Z" fill="#F08000"/>
<path fill-rule="evenodd" clip-rule="evenodd" d="M31.2402 24.3274V4.95312H35.8943V20.1671H43.4956V24.3274H31.2402Z" fill="#F08000"/>
<path fill-rule="evenodd" clip-rule="evenodd" d="M69.8602 20.8259H71.8004C72.7337 20.8259 73.4582 20.5941 73.9985 20.1427C74.5266 19.6913 74.7967 19.069 74.7967 18.276C74.7967 17.4952 74.5389 16.8974 74.0108 16.4825C73.4951 16.0555 72.7583 15.8481 71.8004 15.8481H69.8602V20.8259ZM69.8602 12.615H71.4075C72.3162 12.615 73.0284 12.4198 73.5565 12.0172C74.0722 11.6146 74.3301 11.0533 74.3301 10.3335C74.3301 9.61369 74.0845 9.07687 73.5933 8.74746C73.1021 8.40585 72.3408 8.23504 71.297 8.23504H69.8602V12.615V12.615ZM65.6113 24.3274V4.95312H71.6408C73.9126 4.95312 75.6318 5.36794 76.7861 6.18537C77.9527 7.015 78.5299 8.23504 78.5299 9.8577C78.5299 10.8459 78.2597 11.6878 77.7317 12.371C77.2036 13.0664 76.4054 13.6032 75.3248 13.9814C76.516 14.2499 77.4369 14.7989 78.1123 15.6285C78.7877 16.4581 79.1193 17.483 79.1193 18.6786C79.1193 20.5453 78.4316 21.9483 77.044 22.8878C75.6564 23.8394 73.6056 24.3152 70.8917 24.3152H65.6113V24.3274Z" fill="#F08000"/>
<path fill-rule="evenodd" clip-rule="evenodd" d="M32.6149 17.0562L32.222 19.5329L31.2396 22.0462L30.5519 23.5224L29.8888 24.4253L29.0169 25.4989L28.0099 26.5359L26.7942 27.1826L25.0136 27.7194L23.1102 28L21.2805 27.7682L19.635 27.451L18.3333 26.7312L15.9019 25.2915L14.502 23.9495L13.7774 23.1808L12.8442 22.0462L12.267 20.6065L11.874 19.1547L11.6653 17.6296L11.874 16.495L11.6039 15.0431L11.2969 13.9695L11.6653 12.6763V12.0174L12.0337 11.5904V10.5656L12.3775 9.90675L12.9547 9.22353L13.3599 7.82048L14.0967 6.55163L14.9195 5.661L15.5089 4.63617L16.2211 4.53856L17.0439 3.87974L17.6333 3.61133L18.3947 3.23312L19.1683 2.63529L20.0157 2.31808L21.6121 0.57342L21.8699 0.317211L22.5331 0L23.5646 0.207407L24.5224 0.84183L25.3452 1.75686L25.6645 3.15991L25.5048 4.13595L24.4733 5.17299L23.1102 5.77081L21.2805 5.88061L20.0893 7.47887L19.3157 9.11373L18.4438 10.3094L17.6579 12.3712L17.4614 14.3843L17.0316 16.2388L17.7684 18.142L18.014 19.9599L18.9964 21.0946L19.942 23.2418L20.6542 23.4126L21.0349 23.8031L21.9068 24.0105L23.1102 24.1691L24.5101 23.8031L25.8855 23.3516L26.7328 22.6684L26.7942 20.7773L27.3959 20.4113L27.3345 18.8741L27.7152 17.8736L27.8749 16.8L28.2187 15.8728L28.0099 14.9577L27.8749 13.5669L27.3468 12.5786L26.6346 12.0906L26.0943 10.9926L25.1733 9.77255L25.3452 8.73551L25.6522 7.84488L26.2662 7.44227H27.1381L28.2678 8.16209L29.3607 8.73551L29.8888 9.77255L30.6133 10.4192L30.822 11.505L31.2396 12.5786L31.5834 13.4449L32.1606 14.2867L32.3325 15.7142L32.6149 17.0562Z" fill="#009D3B"/>
</svg>
